<?xml version="1.0" standalone="no"?>
<!DOCTYPE svg PUBLIC "-//W3C//DTD SVG 20010904//EN"
 "http://www.w3.org/TR/2001/REC-SVG-20010904/DTD/svg10.dtd">
<svg version="1.0" xmlns="http://www.w3.org/2000/svg"
 width="2481.000000pt" height="3508.000000pt" viewBox="0 0 2481.000000 3508.000000"
 preserveAspectRatio="xMidYMid meet">
<metadata>
Created by potrace 1.16, written by Peter Selinger 2001-2019
</metadata>
<g transform="translate(0.000000,3508.000000) scale(0.100000,-0.100000)"
fill="#000000" stroke="none">
<path d="M13190 24523 c-8 -3 -18 -11 -22 -17 -4 -6 -8 -192 -8 -413 0 -381
-1 -403 -18 -403 -40 0 -51 -47 -36 -142 5 -31 11 -38 29 -38 21 0 22 -4 28
-152 4 -83 7 -229 7 -323 0 -126 3 -175 13 -182 6 -6 50 -11 96 -12 l84 -1 -8
339 -7 338 421 8 c232 4 424 5 427 2 3 -2 8 -156 11 -341 l6 -336 94 0 93 0 0
103 c0 76 -28 1544 -30 1566 0 10 -140 -6 -154 -18 -14 -12 -16 -56 -16 -406
l0 -392 -107 -6 c-58 -4 -249 -7 -423 -7 l-318 0 -6 23 c-3 12 -6 106 -6 208
0 102 -3 281 -7 397 l-6 212 -61 -1 c-34 0 -68 -3 -76 -6z"/>
<path d="M12340 24509 c-173 -3 -370 -7 -437 -8 l-123 -1 0 -80 0 -80 318 0
317 0 3 -438 c1 -240 5 -578 8 -749 l7 -313 93 0 94 0 0 38 c0 20 -7 348 -15
727 -8 380 -15 700 -15 713 l0 22 185 0 c174 0 186 1 206 21 11 11 18 27 15
36 -3 8 -6 39 -6 69 l0 54 -167 -2 c-93 -1 -310 -5 -483 -9z"/>
<path d="M14607 24106 l6 -414 -28 -4 c-42 -5 -50 -25 -39 -104 8 -65 11 -69
37 -72 l27 -3 0 -335 0 -334 103 0 c110 0 960 29 962 33 0 1 -1 35 -3 75 l-4
72 -432 0 -433 0 -7 246 c-4 135 -6 247 -4 249 2 2 120 6 263 9 143 4 293 9
333 12 l72 6 0 79 0 80 -333 -7 -334 -7 -6 129 c-4 71 -7 220 -7 332 l0 202
445 0 445 0 0 85 0 85 -535 0 -535 0 7 -414z"/>
<path d="M10470 23084 c-201 -7 -590 -17 -865 -23 -275 -6 -571 -14 -657 -17
l-158 -7 0 -42 c0 -23 3 -97 7 -163 l6 -122 399 0 398 0 0 -652 c0 -359 7
-1161 15 -1783 8 -621 15 -1169 15 -1216 l0 -86 -387 -7 c-352 -7 -390 -9
-413 -25 -25 -18 -25 -19 -24 -170 1 -83 5 -158 8 -168 6 -15 35 -16 344 -9
185 3 465 11 622 16 157 5 467 14 690 20 223 5 453 13 513 16 l107 6 0 98 c0
53 -3 125 -6 159 l-7 61 -517 0 -518 0 -6 203 c-4 111 -20 897 -36 1747 -16
850 -31 1600 -33 1668 l-3 122 311 1 c170 0 412 4 536 7 274 8 269 6 269 116
0 39 -3 115 -7 169 l-6 97 -116 -1 c-64 -1 -280 -8 -481 -15z"/>
<path d="M18268 22876 c-176 -63 -288 -249 -218 -363 30 -50 71 -66 154 -61
84 6 138 30 207 95 89 83 121 189 82 270 -30 63 -135 91 -225 59z"/>
<path d="M16965 22644 c-11 -2 -45 -9 -75 -15 -108 -22 -214 -95 -241 -166 -5
-13 -9 -50 -9 -81 0 -189 261 -352 570 -356 126 -1 194 12 275 51 126 62 173
155 140 270 -13 46 -28 68 -78 117 -110 109 -274 173 -461 181 -56 2 -110 2
-121 -1z"/>
<path d="M14042 22229 c-16 -35 -320 -747 -677 -1581 -357 -835 -651 -1518
-654 -1518 -3 1 -188 400 -410 888 -569 1248 -985 2123 -1043 2197 -19 24 -26
27 -69 23 -39 -4 -62 -15 -123 -61 -40 -31 -100 -80 -132 -110 l-59 -55 71
-139 c70 -134 549 -1075 1204 -2363 439 -863 470 -923 486 -939 9 -10 41 -15
99 -17 l85 -3 0 29 c0 27 2 29 30 24 25 -5 31 -3 39 17 18 48 558 1243 864
1914 596 1306 660 1449 661 1482 0 18 -8 41 -19 54 -19 20 -286 205 -312 216
-8 3 -24 -19 -41 -58z"/>
<path d="M17616 22023 c-64 -148 -120 -273 -124 -279 -4 -7 -43 -24 -87 -39
-525 -176 -815 -590 -815 -1166 0 -153 12 -233 69 -463 l39 -159 -170 -386
c-93 -212 -173 -389 -177 -393 -4 -5 -40 67 -80 160 -137 311 -672 1494 -908
2007 -271 587 -417 889 -444 916 -22 22 -78 25 -112 7 -30 -16 -162 -118 -219
-170 l-48 -43 101 -215 c508 -1085 1154 -2422 1397 -2889 62 -118 112 -218
112 -223 0 -10 -146 -332 -320 -706 l-113 -243 -236 -75 c-801 -256 -923 -300
-1086 -396 -203 -119 -328 -271 -381 -464 -22 -80 -29 -251 -15 -359 35 -257
245 -875 408 -1198 79 -155 123 -207 177 -207 49 0 81 18 138 77 86 89 162
226 490 883 179 360 415 822 523 1025 109 204 235 442 281 531 l84 161 113 47
c449 190 714 400 848 673 65 132 78 204 79 443 0 259 -32 503 -98 740 l-18 65
133 290 c74 160 283 616 465 1015 182 399 334 728 337 732 3 4 59 10 123 14
82 5 122 11 130 21 21 26 -9 37 -112 41 -55 3 -100 8 -100 12 0 4 18 46 40 94
46 99 49 135 18 170 -23 25 -304 216 -318 216 -4 0 -60 -120 -124 -267z m-189
-430 c-2 -5 -129 -297 -283 -650 -153 -353 -282 -636 -285 -630 -12 21 -39
223 -45 340 -7 120 6 262 33 362 60 223 220 405 465 530 111 56 122 61 115 48z
m-541 -2478 c24 -125 28 -177 29 -310 0 -154 -1 -163 -31 -247 -67 -186 -185
-341 -337 -442 -76 -50 -325 -181 -332 -174 -2 2 90 201 204 443 114 242 256
546 316 677 72 154 112 230 116 220 4 -10 19 -84 35 -167z m-1269 -1587 c-13
-31 -1027 -2170 -1055 -2223 l-15 -30 -9 25 c-22 59 -69 244 -92 360 -71 362
-97 907 -51 1089 24 100 72 186 147 266 152 163 410 298 888 466 175 61 195
66 187 47z"/>
<path d="M18130 21630 c-55 -12 -85 -26 -124 -61 -126 -110 -105 -322 48 -475
178 -177 447 -187 551 -20 28 46 30 57 30 140 0 82 -3 98 -32 159 -84 178
-299 294 -473 257z"/>
<path d="M17565 20073 c-124 -17 -280 -85 -362 -157 -132 -117 -139 -278 -16
-372 232 -177 754 -72 884 177 31 59 31 138 1 196 -36 69 -125 124 -241 149
-61 13 -197 16 -266 7z"/>
</g>
</svg>
