<?xml version="1.0" standalone="no"?>
<!DOCTYPE svg PUBLIC "-//W3C//DTD SVG 20010904//EN"
 "http://www.w3.org/TR/2001/REC-SVG-20010904/DTD/svg10.dtd">
<svg version="1.0" xmlns="http://www.w3.org/2000/svg"
 width="1065.000000pt" height="1041.000000pt" viewBox="0 0 1065.000000 1041.000000"
 preserveAspectRatio="xMidYMid meet">
<metadata>
Created by potrace 1.16, written by Peter Selinger 2001-2019
</metadata>
<g transform="translate(0.000000,1041.000000) scale(0.100000,-0.100000)"
fill="#000000" stroke="none">
<path d="M4815 9703 c-22 -2 -46 -11 -52 -20 -10 -13 -13 -112 -13 -415 0
-393 0 -398 -20 -398 -32 0 -44 -39 -34 -107 8 -53 11 -58 37 -61 l27 -3 0
-317 c0 -254 3 -321 14 -337 12 -17 25 -20 92 -20 l79 0 -4 336 -4 337 329 6
c181 3 375 7 432 9 l102 3 0 -343 0 -343 95 0 95 0 0 28 c0 15 -7 358 -15 762
-8 404 -15 768 -15 808 l0 74 -67 -7 c-110 -11 -103 18 -103 -436 l0 -389
-429 0 -428 0 -9 418 -9 417 -30 1 c-16 1 -48 -1 -70 -3z"/>
<path d="M3985 9689 c-668 -14 -609 -10 -613 -38 -2 -14 -1 -49 3 -78 l6 -53
315 0 314 0 1 -432 c1 -238 4 -575 8 -748 l6 -315 90 4 c50 2 91 4 91 5 1 0
-4 285 -12 631 -7 347 -13 680 -13 742 l-1 111 183 4 c137 2 188 6 200 17 13
10 17 31 17 87 l0 74 -97 -2 c-54 0 -278 -5 -498 -9z"/>
<path d="M6200 9285 c0 -407 0 -415 -20 -415 -31 0 -52 -42 -45 -87 13 -79 15
-83 39 -83 l23 0 7 -337 c5 -186 9 -340 11 -342 3 -3 481 11 873 26 l172 6 0
73 0 74 -433 0 -434 0 -6 113 c-4 61 -7 173 -7 248 l0 136 113 6 c61 4 162 7
222 7 61 0 161 3 223 7 l112 6 0 27 c0 15 -3 48 -6 74 l-7 46 -328 0 -328 0
-5 33 c-3 17 -7 166 -8 330 l-4 297 402 0 c221 0 422 3 448 6 l46 7 0 78 0 79
-530 0 -530 0 0 -415z"/>
<path d="M1975 8260 c-297 -10 -774 -23 -1060 -29 -286 -7 -523 -15 -526 -19
-4 -4 -4 -77 0 -162 l6 -155 396 -3 396 -2 6 -928 c8 -1211 25 -2646 32 -2744
l5 -78 -372 0 c-231 0 -387 -4 -411 -11 -58 -16 -62 -35 -50 -204 5 -80 13
-148 16 -151 7 -7 678 9 1907 47 195 6 356 12 358 14 2 2 1 74 -3 160 l-8 156
-518 -3 c-286 -2 -519 -3 -520 -3 -2 0 -77 3740 -76 3741 1 1 241 6 532 11
554 9 567 11 580 54 4 12 4 90 0 175 l-7 154 -72 -1 c-39 -1 -314 -10 -611
-19z"/>
<path d="M9848 8045 c-50 -18 -119 -67 -153 -107 -61 -73 -83 -175 -50 -238
50 -97 237 -80 353 33 112 109 125 265 26 312 -39 18 -126 18 -176 0z"/>
<path d="M8491 7805 c-88 -20 -162 -58 -205 -105 -173 -191 91 -462 474 -487
334 -21 545 159 425 363 -52 88 -194 180 -340 220 -85 22 -274 27 -354 9z"/>
<path d="M5225 6448 c-827 -1935 -918 -2148 -924 -2148 -3 1 -190 404 -415
898 -608 1331 -985 2123 -1044 2193 -22 27 -30 31 -64 26 -48 -6 -137 -70
-296 -212 -10 -9 86 -204 456 -931 258 -505 616 -1207 795 -1559 481 -946 488
-959 500 -967 7 -5 28 -7 47 -7 19 1 56 -2 83 -6 l47 -7 0 32 c0 31 2 32 29
27 25 -5 31 -2 37 16 9 28 489 1095 739 1642 521 1140 785 1729 785 1751 0 44
-18 62 -153 151 -72 48 -144 96 -158 106 l-27 17 -437 -1022z"/>
<path d="M9296 7397 c-17 -40 -72 -165 -121 -279 l-90 -207 -104 -36 c-449
-156 -714 -478 -786 -955 -17 -108 -19 -274 -5 -370 5 -36 30 -153 56 -260
l46 -195 -145 -330 c-194 -441 -207 -469 -211 -464 -3 2 -39 83 -81 179 -313
712 -1066 2361 -1242 2718 -102 209 -119 229 -178 218 -36 -7 -152 -89 -244
-173 l-55 -49 129 -275 c508 -1085 1117 -2345 1363 -2817 l121 -232 -73 -163
c-40 -89 -139 -304 -220 -478 l-147 -316 -422 -133 c-475 -149 -647 -210 -792
-280 -299 -144 -450 -321 -501 -588 -36 -187 -4 -374 137 -802 177 -535 351
-890 438 -890 68 0 145 68 238 208 32 48 207 386 390 752 182 366 420 832 528
1035 108 204 235 442 281 530 l84 160 87 34 c119 47 303 139 404 201 233 145
384 301 475 493 62 133 69 176 69 432 0 135 -6 269 -14 325 -16 119 -55 313
-81 406 l-20 70 348 760 c191 417 402 877 467 1021 l120 262 75 6 c167 13 181
16 178 33 -4 20 -55 31 -150 31 -38 1 -68 3 -68 5 0 2 18 42 40 89 53 113 57
135 30 169 -11 15 -89 72 -171 127 l-150 100 -33 -72z m-269 -614 c-2 -5 -132
-301 -288 -660 -156 -359 -287 -649 -290 -645 -15 15 -40 215 -46 363 -12 314
49 507 214 680 87 91 186 162 313 224 99 48 103 49 97 38z m-553 -2458 c34
-181 47 -340 36 -435 -25 -216 -149 -433 -325 -567 -62 -47 -381 -220 -390
-211 -2 1 90 201 204 443 114 242 258 551 321 687 63 136 118 241 121 235 4
-7 18 -75 33 -152z m-1257 -1607 c-8 -20 -454 -961 -782 -1651 -253 -531 -300
-625 -308 -605 -4 12 -26 91 -47 173 -76 288 -108 548 -117 920 -8 344 11 439
112 581 135 188 382 328 930 525 199 71 220 77 212 57z"/>
<path d="M9690 6795 c-57 -18 -114 -65 -143 -118 -17 -33 -22 -58 -22 -122 0
-69 5 -89 32 -148 40 -85 126 -173 209 -215 255 -129 494 6 454 254 -38 235
-313 416 -530 349z"/>
<path d="M9105 5236 c-121 -28 -252 -92 -318 -154 -71 -66 -105 -159 -87 -234
53 -220 503 -277 794 -100 250 151 244 381 -11 474 -74 27 -286 35 -378 14z"/>
</g>
</svg>
