<svg id="Livello_1" data-name="Livello 1" xmlns="http://www.w3.org/2000/svg" viewBox="0 0 777.78 737.66"><defs><style>.cls-1,.cls-2,.cls-6{stroke:#1d1d1b;stroke-miterlimit:10;}.cls-1{stroke-width:9.72px;}.cls-2{stroke-width:2.44px;}.cls-3{fill:#00a99d;}.cls-4{fill:#007287;}.cls-5{fill:#00a099;}.cls-6{fill:#010000;stroke-width:6.48px;}.cls-7{fill:none;}</style></defs><title>Logo TI</title><path class="cls-1" d="M100.87,270.39q24.06-.93,53-1.39t54.36-1.39l59.69-1.85a63.26,63.26,0,0,0,.46,7.87c0,2.16.07,4.24.23,6.24s.23,3.47.23,4.4q0,.47-8.1.69c-5.39.16-12.65.31-21.74.46s-19.51.24-31.23.24H101.34ZM269.28,601.74q-24.06.91-53,1.58T162,604.9q-29.62.93-59.69,1.39a67.71,67.71,0,0,1-.46-7.69,40.34,40.34,0,0,1-.46-5.87v-4.52c0-.3,2.69-.52,8.09-.68s12.65-.22,21.75-.22h31.23q17.58,0,36.09-.22t36.78-.24h33.54Zm-87.9-327.65,6.47,324.33a25.71,25.71,0,0,1-5.08-.46c-1.55,0-3.17-.07-4.86-.23s-3.32-.23-4.86-.23q-6.48,0-6.48,1.39,0,.47-.23-14.35t-.69-39.33q-.47-24.51-.7-55.75t-.69-63.15q-.47-31.92-.7-61.54t-.23-51.35q0-17.58.23-28c.16-6.94.39-10.4.7-10.4Z" transform="translate(-95.87 -149.58)"/><path class="cls-1" d="M283.17,332.39q.46,0,6,10.87t13.88,28.45q8.32,17.6,19,40t21.28,46q25.44,55.51,57.37,125.39L508.49,331q5.09,3.71,9.72,6.48c2.47,1.54,4.7,3,6.71,4.39s3,2.39,3,3q0,.47-5.33,12T509,387q-8.34,18.51-19.2,42.34T467.55,477.9q-11.34,24.75-22,48.34t-19,42.11q-8.33,18.51-13.42,29.84t-4.62,11.34a14,14,0,0,1-3.24-.46,24.73,24.73,0,0,0-5.55-.93c-.63,0-.93.07-.93.23s-.16.23-.46.23h-.46v.47c.3.3-1.39-3.16-5.09-10.42s-8.72-17-15-29.38-13.5-26.37-21.52-42.1-16.19-31.92-24.52-48.58L264.2,346.27q4.17-3.7,7.87-6.94c2.15-1.54,4.24-3.08,6.24-4.63S281.94,332.39,283.17,332.39Z" transform="translate(-95.87 -149.58)"/><path class="cls-1" d="M678.29,608.6q-.93.93-6.71-10t-15-29.14q-9.25-18.27-20.82-41.88t-23.59-48.58Q583.9,420.76,549.2,346.27q4.17-3.7,7.87-6.94,3.23-2.31,6.24-4.63c2-1.54,3.62-2.31,4.86-2.31q.45,0,6.25,11.56T589,374.49q8.79,19,19.9,43t22.44,49.27q11.32,25.23,22.2,49.28t19.2,43q8.34,19,18.51,41.64Zm0,0q-.93.93-6.71-10t-15-29.14q-9.25-18.27-20.82-41.88t-23.59-48.58Q583.9,420.76,549.2,346.27q4.17-3.7,7.87-6.94,3.23-2.31,6.24-4.63c2-1.54,3.62-2.31,4.86-2.31q.45,0,6.25,11.56T589,374.49q8.79,19,19.9,43t22.44,49.27q11.32,25.23,22.2,49.28t19.2,43q8.34,19,18.51,41.64ZM547.08,873.55s63.64-133.38,102.06-215.68c9.08-19.45,17.81-38.63,17.81-38.63q10.88-24,24.52-54.83T719,501.72Q751.85,426.31,793.49,331q5.09,3.71,9.72,6.48,3.69,2.31,6.71,4.39t3,3q0,.47-6.7,15t-17.59,38.41q-10.87,23.83-24.75,54.13t-28.45,62q-14.58,31.69-28.69,62t-25.21,53.9c-9.59,20.38-16.59,35.1-18,38.17-11.1,23.4-50.3,92.28-89.18,173.93C547.41,898.92,539.31,881.33,547.08,873.55Z" transform="translate(-95.87 -149.58)"/><path class="cls-2" d="M529.61,809.49c-2.59-31-2.41-42.73,0-54.68,13.78-68.6,183.92-58.59,211.31-140.61,3.92-11.72,3.22-39.32,0-58.59-3.91-23.43-7.82-31.24-11.74-46.87-2.86-11.44-24.21-72,0-105.45,29.78-41.1,98.11-37.57,97.84-39.06s-78.79-8.08-109.58,43c-15.19,25.2-16.26,54.66-11.74,74.21,11.74,50.78,26.28,96.54,23.48,121.08A67.83,67.83,0,0,1,694,653.26c-43,23.43-78.26,31.24-125.22,46.87-37,12.29-53.85,23.48-62.61,43-10.5,23.32-1.74,49.23,7.82,78.12,10.55,31.86,27.4,70.3,31.31,62.49C546.84,880.54,533.52,856.36,529.61,809.49Z" transform="translate(-95.87 -149.58)"/><ellipse class="cls-3" cx="850.33" cy="331" rx="17.5" ry="23.33" transform="translate(377.61 1012.45) rotate(-86.88)"/><ellipse class="cls-4" cx="780.36" cy="519.74" rx="38.88" ry="23.33" transform="translate(-175.42 -3.54) rotate(-10.18)"/><ellipse class="cls-5" cx="789.9" cy="281.71" rx="17.5" ry="27.22" transform="translate(-124.27 -51.42) rotate(-6.99)"/><ellipse class="cls-4" cx="833.77" cy="400.95" rx="23.27" ry="30.04" transform="translate(-97.84 648.21) rotate(-51.08)"/><ellipse class="cls-4" cx="744.52" cy="320.09" rx="23.33" ry="38.88" transform="translate(207.97 850.64) rotate(-80.32)"/><ellipse class="cls-5" cx="683.87" cy="509.22" rx="14.02" ry="20.57" transform="translate(-151.03 784.87) rotate(-66.59)"/><ellipse class="cls-4" cx="832.73" cy="294.21" rx="20.57" ry="14.02" transform="translate(-99.82 427.41) rotate(-38.13)"/><path class="cls-6" d="M331.62,155.33c2.89-.11,6.35-.19,10.36-.25s8.33-.13,13-.25,9.42-.19,14.38-.25,9.78-.14,14.46-.25l34.94-.67a21.36,21.36,0,0,0,.17,2.84c0,.78,0,1.54.08,2.26s.08,1.26.08,1.59a27,27,0,0,1-4.93.25q-4.94.09-12.79.17t-17.64.08H331.78Zm55.84,1.34L389.8,277H386a11.2,11.2,0,0,0-1.5.09,10.93,10.93,0,0,1-1.17.08h-1.17q-.18-11.19-.34-20.31t-.25-20.65q-.09-11.53-.25-23.32T381,190.19q-.09-11-.08-19c0-4.35,0-7.8.08-10.37a16.64,16.64,0,0,1,.25-3.85Z" transform="translate(-95.87 -149.58)"/><path class="cls-6" d="M523.54,223.21q-4.35.16-10.45.34T500,223.8q-7,.07-14.63.25l-14.8.33q-17,.35-35.77.5c-.12-.67-.23-1.33-.34-2a17.84,17.84,0,0,1-.25-1.84c-.06-.67-.08-1.28-.08-1.84,0-.89.11-1.34.33-1.34h67q6.93,0,12.71-.08t9.27-.09ZM445.13,153l2.34,124.22a8.79,8.79,0,0,1-1.84-.17c-.55,0-1.14,0-1.75-.08s-1.2-.08-1.76-.08c-1.56,0-2.34.16-2.34.5,0,.11,0-1.73-.08-5.52s-.14-8.8-.25-15.05-.2-13.34-.25-21.31-.14-16-.25-24.16-.2-16-.25-23.66-.09-14.18-.09-19.64q0-6.85.09-10.78c.05-2.62.13-3.93.25-3.93Zm75.35,126.78c0-.61-.2-18.33-.26-25.41s-.11-14.4-.16-22-.11-15-.17-22.24-.11-14.12-.17-20.64-.08-12.29-.08-17.31q0-8.35.08-13.21a27.23,27.23,0,0,1,.25-4.84l6.19-.34,2.29,126" transform="translate(-95.87 -149.58)"/><path class="cls-6" d="M610.64,223.21q-8.68.33-19.64.59t-20.82.58q-11.53.35-23.23.5c-.12-.67-.23-1.33-.34-2a17.84,17.84,0,0,1-.25-1.84c-.06-.67-.08-1.28-.08-1.84,0-.89.11-1.34.33-1.34h45.81q5.18,0,9.86-.08c3.12-.06,5.86-.09,8.2-.09Zm16.55-69.88.17,6.35q-5.52.16-12.45.25l-14.21.17q-7.28.09-14.47.08H557.48l2,110h67.71l.17,4.85q-10.87.49-19.06.75t-17.8.59q-9.62.33-18,.58t-14.22.33l-6.35.09-.83-124Z" transform="translate(-95.87 -149.58)"/><path class="cls-7" d="M905,325.34" transform="translate(-95.87 -149.58)"/></svg>